{"title":"Road.To.Paloma.2014.480p.BRRip.XviD.AC3-N3kr4","uid":10453610,"size":1488301064,"categoryP":"video","categoryS":"hd___movies","magnet":"?xt=urn:btih:94d5156028076ef14ea8f8d146a306ec9ea4e5c1&amp;dn=Road.To.Paloma.2014.480p.BRRip.XviD.AC3-N3kr4&amp;tr=udp%3A%2F%2Ftracker.openbittorrent.com%3A80&amp;tr=udp%3A%2F%2Fopen.demonii.com%3A1337&amp;tr=udp%3A%2F%2Ftracker.coppersurfer.tk%3A6969&amp;tr=udp%3A%2F%2Fexodus.desync.com%3A6969","seeders":1,"leechers":0,"uploader":"Falcon.G13","files":2,"time":1404050200,"description":"Road to Paloma (2014)\n 91 min - Drama | Thriller - 12 April 2014 (USA)\n6.3 Your rating: -/10 Ratings: 6.3/10 from 191 users \nReviews: 1 user\n\nWolf, a Native American on the run after avenging his mother's murder, flees across the desolate American West on his motorcycle, where he'll discover that justice has a cost.\n &lt;a href=&quot;\nhttp://i.imgur.com/UCobCrx.jpg&quot; rel=&quot;nofollow&quot; target=&quot;_NEW&quot;&gt;\nhttp://i.imgur.com/UCobCrx.jpg&lt;/a&gt; &lt;a href=&quot;\nhttp://i.imgur.com/hq32DkD.jpg&quot; rel=&quot;nofollow&quot; target=&quot;_NEW&quot;&gt;\nhttp://i.imgur.com/hq32DkD.jpg&lt;/a&gt; &lt;a href=&quot;\nhttp://i.imgur.com/ITFFeeA.jpg&quot; rel=&quot;nofollow&quot; target=&quot;_NEW&quot;&gt;\nhttp://i.imgur.com/ITFFeeA.jpg&lt;/a&gt; &lt;a href=&quot;\nhttp://i.imgur.com/bi4nCRo.jpg&quot; rel=&quot;nofollow&quot; target=&quot;_NEW&quot;&gt;\nhttp://i.imgur.com/bi4nCRo.jpg&lt;/a&gt; &lt;a href=&quot;\nhttp://i.imgur.com/knGw6Jm.jpg&quot; rel=&quot;nofollow&quot; target=&quot;_NEW&quot;&gt;\nhttp://i.imgur.com/knGw6Jm.jpg&lt;/a&gt; &lt;a href=&quot;\nhttp://i.imgur.com/djL7jMR.jpg&quot; rel=&quot;nofollow&quot; target=&quot;_NEW&quot;&gt;\nhttp://i.imgur.com/djL7jMR.jpg&lt;/a&gt; &lt;a href=&quot;\nhttp://i.imgur.com/SSLoFqE.jpg&quot; rel=&quot;nofollow&quot; target=&quot;_NEW&quot;&gt;\nhttp://i.imgur.com/SSLoFqE.jpg&lt;/a&gt; &lt;a href=&quot;\nhttp://i.imgur.com/nYAP4Mj.jpg&quot; rel=&quot;nofollow&quot; target=&quot;_NEW&quot;&gt;\nhttp://i.imgur.com/nYAP4Mj.jpg&lt;/a&gt; &lt;a href=&quot;\nhttp://i.imgur.com/Ibtgb5h.jpg&quot; rel=&quot;nofollow&quot; target=&quot;_NEW&quot;&gt;\nhttp://i.imgur.com/Ibtgb5h.jpg&lt;/a&gt;\n\nGeneral\nComplete name : Road.To.Paloma.2014.480p.BRRip.XviD.AC3-N3kr4.avi\nFormat : AVI\nFormat/Info : Audio Video Interleave\nFormat profile : OpenDML\nFile size : 1.39 GiB\nDuration : 1h 30mn\nOverall bit rate : 2 193 Kbps\nWriting application : Lavf55.7.100\n\nVideo\nID : 0\nFormat : MPEG-4 Visual\nFormat profile : Advanced Simple@L1\nFormat settings, BVOP : No\nFormat settings, QPel : No\nFormat settings, GMC : No warppoints\nFormat settings, Matrix : Default (H.263)\nCodec ID : XVID\nCodec ID/Hint : XviD\nDuration : 1h 30mn\nBit rate : 1 541 Kbps\nWidth : 720 pixels\nHeight : 304 pixels\nDisplay aspect ratio : 2.35:1\nFrame rate : 23.976 fps\nColor space : YUV\nChroma subsampling : 4:2:0\nBit depth : 8 bits\nScan type : Progressive\nCompression mode : Lossy\nBits/(Pixel*Frame) : 0.294\nStream size : 997 MiB (70%)\nWriting library : Lavc55.12.100\n\nAudio\nID : 1\nFormat : AC-3\nFormat/Info : Audio Coding 3\nMode extension : CM (complete main)\nFormat settings, Endianness : Big\nCodec ID : 2000\nDuration : 1h 30mn\nBit rate mode : Constant\nBit rate : 640 Kbps\nChannel(s) : 6 channels\nChannel positions : Front: L C R, Side: L R, LFE\nSampling rate : 48.0 KHz\nBit depth : 16 bits\nCompression mode : Lossy\nStream size : 414 MiB (29%)\nAlignment : Aligned on interleaves\nInterleave, duration : 32 ms (0.77 video frame)\nInterleave, preload duration : 32 ms","torrent":{"xt":"urn:btih:94d5156028076ef14ea8f8d146a306ec9ea4e5c1","amp;dn":"Road.To.Paloma.2014.480p.BRRip.XviD.AC3-N3kr4","amp;tr":["udp%3A%2F%2Ftracker.openbittorrent.com%3A80","udp%3A%2F%2Fopen.demonii.com%3A1337","udp%3A%2F%2Ftracker.coppersurfer.tk%3A6969","udp%3A%2F%2Fexodus.desync.com%3A6969"],"infoHash":"94d5156028076ef14ea8f8d146a306ec9ea4e5c1","infoHashBuffer":{"type":"Buffer","data":[148,213,21,96,40,7,110,241,78,168,248,209,70,163,6,236,158,164,229,193]},"announce":[],"urlList":[]}}